<mxfile host="app.diagrams.net" modified="2022-11-01T14:55:44.981Z" agent="5.0 (Windows NT 10.0; WOW64) AppleWebKit/537.36 (KHTML, like Gecko) Chrome/104.0.5112.124 YaBrowser/22.9.4.866 Yowser/2.5 Safari/537.36" etag="W5oSled1-me7iiXp9Y_E" version="20.5.1" type="github">
  <diagram id="bky02vcN_QvbuUpbgwNp" name="Страница 1">
    <mxGraphModel dx="1374" dy="781" grid="1" gridSize="10" guides="1" tooltips="1" connect="1" arrows="1" fold="1" page="1" pageScale="1" pageWidth="827" pageHeight="1169" math="0" shadow="0">
      <root>
        <mxCell id="0" />
        <mxCell id="1" parent="0" />
        <mxCell id="JF4cxzbJI0X2l9icQMzw-1" value="" style="rounded=0;whiteSpace=wrap;html=1;" vertex="1" parent="1">
          <mxGeometry x="190" y="120" width="120" height="60" as="geometry" />
        </mxCell>
      </root>
    </mxGraphModel>
  </diagram>
</mxfile>
